<svg width="913" height="325" viewBox="0 0 913 325" fill="none" xmlns="http://www.w3.org/2000/svg">
<path d="M60.2705 325C48.8656 325 38.6012 322.119 29.4773 316.356C20.3534 310.593 13.1595 302.648 7.8957 292.519C2.6319 282.216 0 270.254 0 256.633C0 242.139 3.24601 229.392 9.73803 218.39C16.2301 207.214 25.1785 198.483 36.5834 192.196C48.1638 185.909 61.5865 182.766 76.8515 182.766C91.7656 182.766 104.75 185.822 115.804 191.934C126.858 197.871 135.455 206.253 141.596 217.08C147.913 227.733 151.071 240.131 151.071 254.276V321.595H103.17V301.425H101.591C99.3104 306.14 96.2398 310.331 92.3797 313.998C88.695 317.491 84.2208 320.198 78.957 322.119C73.6932 324.04 67.4644 325 60.2705 325ZM75.7987 280.994C80.5362 280.994 84.6595 279.859 88.1687 277.589C91.8533 275.319 94.6607 272.175 96.5907 268.159C98.6963 263.968 99.749 259.253 99.749 254.014C99.749 248.95 98.6963 244.497 96.5907 240.655C94.6607 236.813 91.8533 233.757 88.1687 231.487C84.6595 229.217 80.5362 228.082 75.7987 228.082C71.2368 228.082 67.1135 229.217 63.4288 231.487C59.7441 233.757 56.849 236.813 54.7435 240.655C52.8135 244.497 51.8484 248.95 51.8484 254.014C51.8484 259.253 52.8135 263.968 54.7435 268.159C56.849 272.175 59.7441 275.319 63.4288 277.589C67.1135 279.859 71.2368 280.994 75.7987 280.994Z" fill="black"/>
<path d="M248.83 325C233.916 325 220.756 321.944 209.351 315.832C197.946 309.72 189.086 301.163 182.769 290.162C176.452 279.16 173.294 266.238 173.294 251.395V130.378H223.827V196.649H225.406C228.038 193.506 231.108 190.886 234.617 188.791C238.127 186.695 241.987 185.211 246.198 184.338C250.409 183.29 254.883 182.766 259.62 182.766C271.727 182.766 282.694 185.647 292.519 191.41C302.345 197.173 310.065 205.206 315.68 215.509C321.47 225.812 324.365 237.948 324.365 251.918C324.365 262.745 322.523 272.612 318.838 281.518C315.329 290.424 310.241 298.195 303.573 304.831C296.906 311.292 288.922 316.269 279.623 319.761C270.499 323.254 260.235 325 248.83 325ZM248.83 280.994C253.567 280.994 257.69 279.859 261.2 277.589C264.884 275.319 267.692 272.175 269.622 268.159C271.727 263.968 272.78 259.253 272.78 254.014C272.78 248.95 271.727 244.497 269.622 240.655C267.692 236.813 264.884 233.757 261.2 231.487C257.69 229.217 253.567 228.082 248.83 228.082C244.268 228.082 240.144 229.217 236.46 231.487C232.775 233.757 229.88 236.813 227.775 240.655C225.844 244.497 224.879 248.95 224.879 254.014C224.879 259.253 225.844 263.968 227.775 268.159C229.88 272.175 232.775 275.319 236.46 277.589C240.144 279.859 244.268 280.994 248.83 280.994Z" fill="black"/>
<path d="M401.338 325C389.933 325 379.669 322.119 370.545 316.356C361.421 310.593 354.227 302.648 348.963 292.519C343.699 282.216 341.068 270.254 341.068 256.633C341.068 242.139 344.314 229.392 350.806 218.39C357.298 207.214 366.246 198.483 377.651 192.196C389.231 185.909 402.654 182.766 417.919 182.766C432.833 182.766 445.817 185.822 456.871 191.934C467.925 197.871 476.523 206.253 482.664 217.08C488.98 227.733 492.139 240.131 492.139 254.276V321.595H444.238V301.425H442.659C440.378 306.14 437.307 310.331 433.447 313.998C429.763 317.491 425.288 320.198 420.025 322.119C414.761 324.04 408.532 325 401.338 325ZM416.866 280.994C421.604 280.994 425.727 279.859 429.236 277.589C432.921 275.319 435.728 272.175 437.658 268.159C439.764 263.968 440.817 259.253 440.817 254.014C440.817 248.95 439.764 244.497 437.658 240.655C435.728 236.813 432.921 233.757 429.236 231.487C425.727 229.217 421.604 228.082 416.866 228.082C412.304 228.082 408.181 229.217 404.496 231.487C400.812 233.757 397.917 236.813 395.811 240.655C393.881 244.497 392.916 248.95 392.916 254.014C392.916 259.253 393.881 263.968 395.811 268.159C397.917 272.175 400.812 275.319 404.496 277.589C408.181 279.859 412.304 280.994 416.866 280.994Z" fill="black"/>
<path d="M585.16 321.595C570.948 321.595 558.314 318.801 547.26 313.213C536.206 307.45 527.521 299.504 521.205 289.376C514.888 279.248 511.73 267.46 511.73 254.014C511.73 240.568 514.888 228.78 521.205 218.652C527.521 208.349 536.206 200.316 547.26 194.553C558.314 188.791 570.948 185.909 585.16 185.909H612.005V227.296H589.634C584.019 227.296 579.106 228.518 574.895 230.963C570.86 233.233 567.702 236.377 565.421 240.393C563.14 244.41 561.999 248.95 561.999 254.014C561.999 259.078 563.14 263.706 565.421 267.897C567.702 271.913 570.86 275.144 574.895 277.589C579.106 279.859 584.019 280.994 589.634 280.994H612.005V321.595H585.16Z" fill="black"/>
<path d="M701.615 325C687.403 325 674.945 322.381 664.242 317.142C653.539 311.728 645.205 304.481 639.239 295.401C633.274 286.145 630.291 275.668 630.291 263.968V185.909H680.56V260.824C680.56 263.968 681.35 267.024 682.929 269.992C684.508 272.961 686.789 275.406 689.772 277.327C692.93 279.073 696.527 279.946 700.562 279.946C704.598 279.946 708.02 279.073 710.827 277.327C713.81 275.406 716.091 272.961 717.67 269.992C719.249 267.024 720.039 263.968 720.039 260.824V185.909H770.571V263.968C770.571 275.668 767.764 286.145 762.149 295.401C756.71 304.481 748.814 311.728 738.462 317.142C728.11 322.381 715.827 325 701.615 325Z" fill="black"/>
<path d="M792.985 321.595V285.971H856.677C858.081 285.971 859.221 285.709 860.099 285.185C860.976 284.486 861.678 283.701 862.204 282.827C862.731 281.78 862.994 280.732 862.994 279.684C862.994 278.636 862.731 277.676 862.204 276.803C861.678 275.755 860.976 274.969 860.099 274.445C859.221 273.922 858.081 273.66 856.677 273.66H836.149C827.2 273.66 819.041 272.175 811.672 269.207C804.302 266.063 798.425 261.261 794.038 254.8C789.827 248.164 787.722 239.695 787.722 229.392C787.722 221.359 789.652 214.112 793.512 207.65C797.547 201.015 802.987 195.776 809.829 191.934C816.672 187.918 824.217 185.909 832.464 185.909H901.683V221.533H844.307C842.553 221.533 841.061 222.145 839.833 223.367C838.78 224.589 838.254 225.986 838.254 227.558C838.254 229.13 838.78 230.527 839.833 231.749C841.061 232.971 842.553 233.583 844.307 233.583H863.257C873.434 233.583 882.207 235.154 889.576 238.298C897.121 241.266 902.911 245.981 906.947 252.442C910.982 258.904 913 267.286 913 277.589C913 285.622 910.894 292.956 906.683 299.592C902.648 306.228 897.209 311.554 890.366 315.57C883.523 319.587 875.802 321.595 867.205 321.595H792.985Z" fill="black"/>
<path d="M314.263 128.097C305.121 128.097 296.963 126.108 289.788 122.131C282.613 118.153 276.943 112.83 272.777 106.162C268.611 99.3773 266.528 91.7734 266.528 83.3506C266.528 74.9278 268.611 67.3824 272.777 60.7143C276.943 53.9293 282.613 48.5481 289.788 44.5706C296.963 40.5932 305.121 38.6045 314.263 38.6045H323.637V42.6404H312.875C305.468 42.6404 298.583 44.4537 292.218 48.0801C285.854 51.7066 280.704 56.6199 276.769 62.82C272.835 68.9032 270.868 75.7467 270.868 83.3506C270.868 90.9545 272.835 97.8565 276.769 104.057C280.704 110.14 285.854 114.995 292.218 118.621C298.583 122.248 305.468 124.061 312.875 124.061H323.637V128.097H314.263Z" fill="black"/>
<path d="M384.882 130.378C376.087 130.378 368.333 128.331 361.621 124.236C354.91 120.025 349.644 114.351 345.825 107.215C342.007 100.079 340.097 92.1244 340.097 83.3506C340.097 74.5769 342.007 66.622 345.825 59.486C349.644 52.35 354.91 46.7348 361.621 42.6404C368.333 38.429 376.087 36.3233 384.882 36.3233C393.676 36.3233 401.43 38.429 408.142 42.6404C414.853 46.7348 420.119 52.35 423.938 59.486C427.756 66.505 429.666 74.4599 429.666 83.3506C429.666 92.1244 427.756 100.079 423.938 107.215C420.119 114.351 414.853 120.025 408.142 124.236C401.43 128.331 393.676 130.378 384.882 130.378ZM384.882 126.342C392.751 126.342 399.694 124.47 405.711 120.727C411.845 116.866 416.647 111.719 420.119 105.285C423.59 98.7339 425.326 91.4225 425.326 83.3506C425.326 75.2788 423.59 68.0258 420.119 61.5917C416.647 55.0406 411.845 49.8934 405.711 46.1499C399.694 42.2895 392.751 40.3592 384.882 40.3592C377.012 40.3592 370.011 42.2895 363.878 46.1499C357.86 49.8934 353.116 55.0406 349.644 61.5917C346.173 68.0258 344.437 75.2788 344.437 83.3506C344.437 91.4225 346.173 98.7339 349.644 105.285C353.116 111.719 357.86 116.866 363.878 120.727C370.011 124.47 377.012 126.342 384.882 126.342Z" fill="black"/>
<path d="M495.235 130.378C486.44 130.378 478.687 128.331 471.975 124.236C465.263 120.025 459.998 114.351 456.179 107.215C452.36 100.079 450.451 92.1244 450.451 83.3506C450.451 74.5769 452.36 66.622 456.179 59.486C459.998 52.35 465.263 46.7348 471.975 42.6404C478.687 38.429 486.44 36.3233 495.235 36.3233C504.03 36.3233 511.784 38.429 518.495 42.6404C525.207 46.7348 530.473 52.35 534.291 59.486C538.11 66.505 540.02 74.4599 540.02 83.3506C540.02 92.1244 538.11 100.079 534.291 107.215C530.473 114.351 525.207 120.025 518.495 124.236C511.784 128.331 504.03 130.378 495.235 130.378ZM495.235 126.342C503.104 126.342 510.048 124.47 516.065 120.727C522.199 116.866 527.001 111.719 530.473 105.285C533.944 98.7339 535.68 91.4225 535.68 83.3506C535.68 75.2788 533.944 68.0258 530.473 61.5917C527.001 55.0406 522.199 49.8934 516.065 46.1499C510.048 42.2895 503.104 40.3592 495.235 40.3592C487.366 40.3592 480.365 42.2895 474.232 46.1499C468.214 49.8934 463.47 55.0406 459.998 61.5917C456.526 68.0258 454.791 75.2788 454.791 83.3506C454.791 91.4225 456.526 98.7339 459.998 105.285C463.47 111.719 468.214 116.866 474.232 120.727C480.365 124.47 487.366 126.342 495.235 126.342Z" fill="black"/>
<path d="M604.721 130.378C599.282 130.378 593.959 129.442 588.752 127.57C583.544 125.582 578.8 122.657 574.518 118.797C570.352 114.819 566.996 109.906 564.45 104.057C562.02 98.0905 560.805 91.1885 560.805 83.3506C560.805 73.29 562.888 64.8088 567.054 57.9067C571.22 50.8877 576.601 45.565 583.197 41.9385C589.909 38.312 597.026 36.4988 604.548 36.4988C610.218 36.4988 615.599 37.6101 620.691 39.8328C625.783 42.0555 630.296 45.0971 634.23 48.9575C638.165 52.701 641.174 57.0294 643.257 61.9427H643.777V0H648.117V84.7544C648.117 94.815 645.976 103.238 641.694 110.023C637.528 116.808 632.147 121.897 625.551 125.289C618.955 128.682 612.012 130.378 604.721 130.378ZM604.895 126.342C611.375 126.342 617.566 124.763 623.468 121.604C629.486 118.446 634.346 113.708 638.049 107.391C641.868 101.074 643.777 93.1772 643.777 83.7016C643.777 74.1089 641.868 66.1541 638.049 59.837C634.23 53.4029 629.312 48.6066 623.295 45.448C617.393 42.1725 611.086 40.5347 604.374 40.5347C597.778 40.5347 591.471 42.231 585.454 45.6235C579.552 49.016 574.691 53.9293 570.873 60.3634C567.054 66.6805 565.144 74.3429 565.144 83.3506C565.144 92.8263 567.054 100.781 570.873 107.215C574.807 113.532 579.783 118.329 585.801 121.604C591.934 124.763 598.299 126.342 604.895 126.342Z" fill="black"/>
<path d="M677.702 128.097V0H682.042V128.097H677.702Z" fill="black"/>
<path d="M751.355 130.378C741.982 130.378 733.997 128.331 727.401 124.236C720.805 120.025 715.771 114.351 712.299 107.215C708.943 100.079 707.265 92.0659 707.265 83.1751C707.265 74.2844 709.059 66.3295 712.646 59.3105C716.349 52.2915 721.557 46.7348 728.269 42.6404C735.096 38.546 743.197 36.4988 752.57 36.4988C761.134 36.4988 768.656 38.4875 775.136 42.4649C781.732 46.4424 786.882 51.8236 790.585 58.6086C794.288 65.3937 796.14 73.1146 796.14 81.7713V128.097H791.8V104.759H791.279C789.659 108.502 787.055 112.362 783.468 116.34C779.881 120.317 775.368 123.651 769.929 126.342C764.605 129.033 758.414 130.378 751.355 130.378ZM751.355 126.517C758.993 126.517 765.82 124.646 771.838 120.902C777.971 117.159 782.774 112.012 786.245 105.46C789.833 98.7924 791.626 91.247 791.626 82.8242C791.626 74.6354 790.006 67.3824 786.766 61.0653C783.526 54.6312 778.955 49.6009 773.053 45.9744C767.151 42.231 760.208 40.3592 752.223 40.3592C743.775 40.3592 736.543 42.2895 730.525 46.1499C724.508 49.8934 719.879 55.0991 716.639 61.7672C713.398 68.3183 711.778 75.8052 711.778 84.228C711.778 91.9489 713.283 99.0264 716.292 105.46C719.416 111.895 723.929 117.042 729.831 120.902C735.733 124.646 742.908 126.517 751.355 126.517Z" fill="black"/>
<path d="M869.084 130.378C861.909 130.378 854.966 128.682 848.254 125.289C841.658 121.897 836.219 116.808 831.937 110.023C827.771 103.238 825.688 94.815 825.688 84.7544V0H830.028V61.9427H830.548C832.631 57.0294 835.64 52.701 839.575 48.9575C843.509 45.0971 848.022 42.0555 853.114 39.8328C858.206 37.6101 863.587 36.4988 869.257 36.4988C876.779 36.4988 883.838 38.312 890.434 41.9385C897.146 45.565 902.585 50.8877 906.751 57.9067C910.917 64.8088 913 73.29 913 83.3506C913 91.1885 911.727 98.0905 909.181 104.057C906.751 109.906 903.395 114.819 899.113 118.797C894.947 122.657 890.261 125.582 885.053 127.57C879.846 129.442 874.523 130.378 869.084 130.378ZM868.91 126.342C875.506 126.342 881.813 124.763 887.831 121.604C893.964 118.329 898.94 113.532 902.759 107.215C906.693 100.781 908.66 92.8263 908.66 83.3506C908.66 74.3429 906.751 66.6805 902.932 60.3634C899.113 53.9293 894.195 49.016 888.178 45.6235C882.276 42.231 876.027 40.5347 869.431 40.5347C862.835 40.5347 856.528 42.1725 850.51 45.448C844.493 48.6066 839.575 53.4029 835.756 59.837C831.937 66.1541 830.028 74.1089 830.028 83.7016C830.028 93.1772 831.879 101.074 835.582 107.391C839.401 113.708 844.261 118.446 850.163 121.604C856.181 124.763 862.43 126.342 868.91 126.342Z" fill="black"/>
</svg>
